# xmcd
#
# Track frame offsets: 
#        300
#        22295
#        39672
#        53065
#        68628
#        87922
#        113524
#        135595
#        147099
#        162514
#        180966
#        196735
#        209478
#        228900
#        244757
#
# Disc length: 3580 seconds
#
# Revision: 3
# Processed by: cddbd v1.5.2PL0 Copyright (c) Steve Scherf et al.
# Submitted via: ExactAudioCopy v0.99pb5
#
DISCID=ca0df80f
DTITLE=Bob Margolin - Down in The Alley
DYEAR=1993
DGENRE=General Blues
TTITLE0=Boogie At Midnight
TTITLE1=Brown Liquor
TTITLE2=Tough Times
TTITLE3=While You're Down There
TTITLE4=Down In The Alley
TTITLE5=Boston Driving Blues
TTITLE6=Lonesome Bedroom Blues
TTITLE7=Baby Can't Be Found
TTITLE8=Big Tree Blues
TTITLE9=Twelve Year Old Boy
TTITLE10=Dream Of Nothing
TTITLE11=Look What You Done
TTITLE12=Wee Wee Hours
TTITLE13=Now Who's The Fool
TTITLE14=Worried Life Blues
EXTD=YEAR: 1993
EXTT0=
EXTT1=
EXTT2=
EXTT3=
EXTT4=
EXTT5=
EXTT6=
EXTT7=
EXTT8=
EXTT9=
EXTT10=
EXTT11=
EXTT12=
EXTT13=
EXTT14=
PLAYORDER=
